<svg width="30" height="30" viewBox="0 0 30 30" fill="none" xmlns="http://www.w3.org/2000/svg">
<path d="M8.25 0H22V2.72727H8.25V0ZM5.5 2.72727H8.25V5.45455H5.5V2.72727ZM2.75 5.45455H5.5V8.18182H2.75V5.45455ZM0 8.18182H2.75V21.8182H0V8.18182ZM2.75 21.8182H5.5V24.5455H2.75V21.8182ZM5.5 24.5455H8.25V27.2727H5.5V24.5455ZM8.25 27.2727H22V30H8.25V27.2727Z" fill="#2CFFF3"/>
<path d="M24.6667 27H22V24.2222H24.6667V21.4444H27.3333V7.55556H24.6667V4.77778H22V2H24.6667V4.77778H27.3333V7.55556H30V21.4444H27.3333V24.2222H24.6667V27Z" fill="#2CFFF3"/>
<path d="M19.87 9.92899C21.4508 12.326 22.2316 15.0298 21.9398 18.1432C21.9391 18.1497 21.9372 18.1561 21.934 18.1617C21.9308 18.1674 21.9264 18.1724 21.9213 18.1762C20.8632 18.9844 19.6792 19.6004 18.4202 19.9978C18.4112 20.0008 18.4016 20.0007 18.3926 19.9977C18.3837 19.9947 18.3759 19.9888 18.3704 19.981C18.1044 19.5999 17.8658 19.1994 17.6565 18.7824C17.6536 18.7767 17.6518 18.7703 17.6514 18.7638C17.651 18.7573 17.652 18.7508 17.6542 18.7447C17.6564 18.7386 17.6599 18.7331 17.6643 18.7284C17.6687 18.7238 17.6741 18.7202 17.68 18.7178C18.0582 18.5714 18.4236 18.3921 18.7725 18.1821C18.7788 18.1782 18.784 18.1728 18.7878 18.1663C18.7916 18.1599 18.7938 18.1526 18.7942 18.1451C18.7946 18.1375 18.7933 18.13 18.7902 18.1232C18.7872 18.1163 18.7826 18.1103 18.7768 18.1057C18.7028 18.0489 18.6301 17.9902 18.559 17.9296C18.5527 17.9243 18.5451 17.9209 18.537 17.9198C18.529 17.9188 18.5208 17.9201 18.5134 17.9237C16.2494 19.0026 13.7689 19.0026 11.4778 17.9237C11.4704 17.9203 11.4622 17.9191 11.4541 17.9203C11.4461 17.9215 11.4385 17.925 11.4323 17.9303C11.3613 17.9905 11.2889 18.049 11.2152 18.1057C11.2094 18.1104 11.2049 18.1164 11.2019 18.1233C11.1989 18.1302 11.1976 18.1377 11.1981 18.1453C11.1986 18.1528 11.2009 18.1601 11.2047 18.1665C11.2086 18.1729 11.2139 18.1783 11.2202 18.1821C11.569 18.3883 11.9312 18.5696 12.312 18.7186C12.3179 18.7208 12.3233 18.7242 12.3279 18.7288C12.3324 18.7333 12.3359 18.7388 12.3382 18.7448C12.3405 18.7509 12.3415 18.7574 12.3412 18.7638C12.3408 18.7703 12.3391 18.7767 12.3362 18.7824C12.1298 19.2022 11.89 19.6022 11.6209 19.9817C11.6153 19.9892 11.6076 19.9947 11.5988 19.9976C11.59 20.0005 11.5806 20.0006 11.5718 19.9978C10.3151 19.5991 9.13312 18.9831 8.07642 18.1762C8.07128 18.1722 8.06699 18.1671 8.06381 18.1613C8.06063 18.1555 8.05863 18.1491 8.05792 18.1425C7.81379 15.4496 8.3113 12.7246 10.1262 9.92827C10.1307 9.92107 10.1371 9.91543 10.1447 9.91212C11.038 9.48937 11.9946 9.17818 12.9946 9.00057C13.0034 8.99912 13.0125 9.00045 13.0206 9.00437C13.0287 9.0083 13.0355 9.01464 13.0401 9.02259C13.164 9.24864 13.3049 9.53781 13.401 9.77414C14.4616 9.60818 15.5404 9.60818 16.601 9.77414C16.697 9.54295 16.833 9.24865 16.9561 9.02333C16.9605 9.01502 16.9674 9.00839 16.9757 9.00443C16.984 9.00046 16.9934 8.99937 17.0024 9.00131C18.0024 9.17892 18.9597 9.49011 19.8515 9.91139C19.8595 9.91474 19.8661 9.92101 19.87 9.92901L19.87 9.92899ZM13.9369 15.0489C13.9476 14.2526 13.3846 13.5943 12.6786 13.5943C11.9775 13.5943 11.4202 14.2475 11.4202 15.0489C11.4202 15.8504 11.9889 16.5029 12.6786 16.5029C13.3789 16.5029 13.9369 15.8497 13.9369 15.0489ZM18.5882 15.0489C18.5996 14.2526 18.0366 13.5943 17.3305 13.5943C16.6294 13.5943 16.0721 14.2475 16.0721 15.0489C16.0721 15.8504 16.6408 16.5029 17.3305 16.5029C18.0366 16.5029 18.5882 15.8497 18.5882 15.0489Z" fill="#2CFFF3"/>
</svg>
