<svg width="32" height="32" viewBox="0 0 32 32" fill="none" xmlns="http://www.w3.org/2000/svg">
<path d="M16 7.82812C9.88125 7.82812 4.92188 12.7875 4.92188 18.9062C4.92188 25.025 9.88125 29.9844 16 29.9844C22.1187 29.9844 27.0781 25.025 27.0781 18.9062C27.0781 12.7906 22.1187 7.82812 16 7.82812Z" fill="#FFA800"/>
<path d="M16 11C11.5814 11 8 14.5814 8 19C8 23.4186 11.5814 27 16 27C20.4186 27 24 23.4186 24 19C24 14.5836 20.4186 11 16 11Z" fill="white"/>
<path d="M19.9281 1.99727C19.5719 1.99727 19.2844 2.25039 19.2031 2.58477L17.1656 6.66289C17.1656 6.66289 21.525 6.92852 24.1031 9.45039L26.9531 3.23477C27.0219 3.04102 27.0656 2.87539 27.0656 2.70664C27.0656 2.27852 26.725 1.99414 26.3031 1.99414H19.9281V1.99727ZM15.0531 6.66602L13.0188 2.58789C12.9344 2.25352 12.65 2.00039 12.2937 2.00039H5.68437C5.2625 2.00039 4.92188 2.34727 4.92188 2.77539C4.92188 2.94414 4.98437 3.09102 5.075 3.21914L8.11563 9.45352C10.6938 6.93477 15.0531 6.66602 15.0531 6.66602Z" fill="#2DFFF4"/>
<path d="M15.6385 13.848C16.2495 13.848 16.7652 13.9628 17.1855 14.1925C17.6102 14.4178 17.933 14.7212 18.154 15.1025C18.3794 15.4838 18.492 15.9107 18.492 16.383C18.492 16.773 18.4227 17.1565 18.284 17.5335C18.1497 17.9105 17.9309 18.307 17.6275 18.723C17.3285 19.1347 16.932 19.594 16.438 20.101C15.944 20.6037 15.3395 21.18 14.6245 21.83H18.7L18.531 23H12.954V21.895C13.5997 21.2797 14.1522 20.738 14.6115 20.27C15.0709 19.7977 15.4544 19.3838 15.762 19.0285C16.0697 18.6688 16.3124 18.346 16.49 18.06C16.6677 17.7697 16.7934 17.4988 16.867 17.2475C16.945 16.9918 16.984 16.734 16.984 16.474C16.984 16.0233 16.8562 15.668 16.6005 15.408C16.3449 15.148 15.9895 15.018 15.5345 15.018C15.1272 15.018 14.7892 15.0917 14.5205 15.239C14.2519 15.3863 13.9854 15.6247 13.721 15.954L12.772 15.2325C13.123 14.7862 13.526 14.4438 13.981 14.2055C14.436 13.9672 14.9885 13.848 15.6385 13.848Z" fill="black"/>
</svg>
