<svg width="32" height="32" viewBox="0 0 32 32" fill="none" xmlns="http://www.w3.org/2000/svg">
<path d="M16 7.82812C9.88125 7.82812 4.92188 12.7875 4.92188 18.9062C4.92188 25.025 9.88125 29.9844 16 29.9844C22.1187 29.9844 27.0781 25.025 27.0781 18.9062C27.0781 12.7906 22.1187 7.82812 16 7.82812Z" fill="#FFA800"/>
<path d="M16 11C11.5814 11 8 14.5814 8 19C8 23.4186 11.5814 27 16 27C20.4186 27 24 23.4186 24 19C24 14.5836 20.4186 11 16 11Z" fill="white"/>
<path d="M19.9281 1.99727C19.5719 1.99727 19.2844 2.25039 19.2031 2.58477L17.1656 6.66289C17.1656 6.66289 21.525 6.92852 24.1031 9.45039L26.9531 3.23477C27.0219 3.04102 27.0656 2.87539 27.0656 2.70664C27.0656 2.27852 26.725 1.99414 26.3031 1.99414H19.9281V1.99727ZM15.0531 6.66602L13.0188 2.58789C12.9344 2.25352 12.65 2.00039 12.2937 2.00039H5.68437C5.2625 2.00039 4.92188 2.34727 4.92188 2.77539C4.92188 2.94414 4.98437 3.09102 5.075 3.21914L8.11563 9.45352C10.6938 6.93477 15.0531 6.66602 15.0531 6.66602Z" fill="#0038FF"/>
<path d="M15.6125 13.848C16.2062 13.848 16.7175 13.952 17.1465 14.16C17.5755 14.368 17.9049 14.6432 18.1345 14.9855C18.3642 15.3278 18.479 15.7048 18.479 16.1165C18.479 16.4848 18.401 16.8142 18.245 17.1045C18.089 17.3948 17.8767 17.6353 17.608 17.826C17.3394 18.0167 17.036 18.151 16.698 18.229C17.075 18.268 17.4195 18.372 17.7315 18.541C18.0435 18.71 18.2927 18.9505 18.479 19.2625C18.6697 19.5745 18.765 19.9667 18.765 20.439C18.765 20.9503 18.6307 21.414 18.362 21.83C18.0977 22.2417 17.7207 22.5688 17.231 22.8115C16.7457 23.0542 16.1737 23.1755 15.515 23.1755C14.9517 23.1755 14.4144 23.0715 13.903 22.8635C13.396 22.6555 12.9649 22.3413 12.6095 21.921L13.5 21.141C13.7557 21.44 14.0547 21.661 14.397 21.804C14.7394 21.947 15.0904 22.0185 15.45 22.0185C16.0047 22.0185 16.4445 21.8755 16.7695 21.5895C17.0945 21.2992 17.257 20.8983 17.257 20.387C17.257 19.997 17.1834 19.6893 17.036 19.464C16.893 19.2343 16.6915 19.0697 16.4315 18.97C16.1715 18.8703 15.8704 18.8205 15.528 18.8205H14.7545L14.9235 17.748H15.4695C15.7512 17.748 16.0112 17.6982 16.2495 17.5985C16.4879 17.4945 16.6785 17.3363 16.8215 17.124C16.9689 16.9117 17.0425 16.6473 17.0425 16.331C17.0425 15.8933 16.893 15.5575 16.594 15.3235C16.2994 15.0895 15.9332 14.9725 15.4955 14.9725C15.1229 14.9725 14.7892 15.0418 14.4945 15.1805C14.2042 15.3148 13.9182 15.5142 13.6365 15.7785L12.863 14.953C13.2574 14.576 13.6842 14.2987 14.1435 14.121C14.6029 13.939 15.0925 13.848 15.6125 13.848Z" fill="black"/>
</svg>
