<svg width="32" height="32" viewBox="0 0 32 32" fill="none" xmlns="http://www.w3.org/2000/svg">
<path d="M16 7.82812C9.88125 7.82812 4.92188 12.7875 4.92188 18.9062C4.92188 25.025 9.88125 29.9844 16 29.9844C22.1187 29.9844 27.0781 25.025 27.0781 18.9062C27.0781 12.7906 22.1187 7.82812 16 7.82812Z" fill="#FFA800"/>
<path d="M16 11C11.5814 11 8 14.5814 8 19C8 23.4186 11.5814 27 16 27C20.4186 27 24 23.4186 24 19C24 14.5836 20.4186 11 16 11Z" fill="white"/>
<path d="M19.9281 1.99727C19.5719 1.99727 19.2844 2.25039 19.2031 2.58477L17.1656 6.66289C17.1656 6.66289 21.525 6.92852 24.1031 9.45039L26.9531 3.23477C27.0219 3.04102 27.0656 2.87539 27.0656 2.70664C27.0656 2.27852 26.725 1.99414 26.3031 1.99414H19.9281V1.99727ZM15.0531 6.66602L13.0188 2.58789C12.9344 2.25352 12.65 2.00039 12.2937 2.00039H5.68437C5.2625 2.00039 4.92188 2.34727 4.92188 2.77539C4.92188 2.94414 4.98437 3.09102 5.075 3.21914L8.11563 9.45352C10.6938 6.93477 15.0531 6.66602 15.0531 6.66602Z" fill="#FF2A51"/>
<path d="M17.1985 14.03V22.74H15.7555V15.525L13.7795 16.7405L13.1555 15.72L15.9115 14.03H17.1985ZM18.9925 21.856V23H13.565V21.856H18.9925Z" fill="black"/>
</svg>
