<svg width="30" height="30" viewBox="0 0 30 30" fill="none" xmlns="http://www.w3.org/2000/svg">
<path d="M8.25 0H22V2.72727H8.25V0ZM5.5 2.72727H8.25V5.45455H5.5V2.72727ZM2.75 5.45455H5.5V8.18182H2.75V5.45455ZM0 8.18182H2.75V21.8182H0V8.18182ZM2.75 21.8182H5.5V24.5455H2.75V21.8182ZM5.5 24.5455H8.25V27.2727H5.5V24.5455ZM8.25 27.2727H22V30H8.25V27.2727Z" fill="#2CFFF3"/>
<path d="M24.6667 27H22V24.2222H24.6667V21.4444H27.3333V7.55556H24.6667V4.77778H22V2H24.6667V4.77778H27.3333V7.55556H30V21.4444H27.3333V24.2222H24.6667V27Z" fill="#2CFFF3"/>
<path d="M23.4286 10.4254C22.8612 10.6598 22.2438 10.8284 21.6078 10.8941C22.2641 10.5195 22.7629 9.9284 22.9984 9.22544C22.3921 9.5716 21.706 9.82544 20.9922 9.9568C20.4137 9.36568 19.5923 9 18.6819 9C16.9297 9 15.5205 10.3598 15.5205 12.0284C15.5205 12.2627 15.5502 12.497 15.5984 12.7225C12.9747 12.5911 10.6348 11.3911 9.07913 9.55385C8.80471 10.0047 8.64896 10.5195 8.64896 11.0822C8.64896 12.1331 9.20707 13.0598 10.0581 13.6047C9.53896 13.5852 9.04946 13.445 8.62856 13.2195V13.2568C8.62856 14.7284 9.71511 15.9479 11.1632 16.2284C10.8981 16.2941 10.6144 16.3314 10.3307 16.3314C10.1249 16.3314 9.93019 16.3118 9.73365 16.2852C10.1342 17.4852 11.3004 18.3568 12.6892 18.3852C11.6027 19.2 10.2417 19.6793 8.76392 19.6793C8.49877 19.6793 8.25402 19.6704 8 19.642C9.40175 20.503 11.0649 21 12.8561 21C18.6708 21 21.8525 16.3882 21.8525 12.3852C21.8525 12.2538 21.8525 12.1225 21.8433 11.9911C22.4588 11.5598 22.9984 11.0254 23.4286 10.4254Z" fill="#2CFFF3"/>
</svg>
