<svg width="20" height="20" viewBox="0 0 20 20" fill="none" xmlns="http://www.w3.org/2000/svg">
<path d="M5.45455 0H14.5455V1.81818H5.45455V0ZM3.63636 1.81818H5.45455V3.63636H3.63636V1.81818ZM1.81818 3.63636H3.63636V5.45455H1.81818V3.63636ZM0 5.45455H1.81818V14.5455H0V5.45455ZM1.81818 14.5455H3.63636V16.3636H1.81818V14.5455ZM3.63636 16.3636H5.45455V18.1818H3.63636V16.3636ZM5.45455 18.1818H14.5455V20H5.45455V18.1818Z" fill="#2CFFF3"/>
<path d="M16.3636 18H14.5455V16.1818H16.3636V14.3636H18.1818V5.27273H16.3636V3.45455H14.5455V1.63637H16.3636V3.45455H18.1818V5.27273H20V14.3636H18.1818V16.1818H16.3636V18Z" fill="#2CFFF3"/>
<path d="M11.6451 6.5C12.986 6.5 13.7778 7.27194 13.7778 8.593H12.1324V8.60622C11.3686 8.60622 10.7495 9.20978 10.7495 9.9545C10.7495 10.6992 11.3686 11.3028 12.1324 11.3028H13.7778V11.4241C13.7778 12.7281 12.986 13.5 11.6451 13.5H8.13267C6.79178 13.5 6 12.7281 6 11.4241V8.57589C6 7.27194 6.79178 6.5 8.13267 6.5H11.6451ZM13.4873 9.17244C13.6479 9.17244 13.7778 9.29922 13.7778 9.45556V10.4398C13.7759 10.5156 13.7445 10.5877 13.6902 10.6406C13.6359 10.6935 13.5631 10.7231 13.4873 10.7229H12.1639C11.7773 10.728 11.439 10.4702 11.3515 10.1027C11.3299 9.9898 11.3338 9.87354 11.3629 9.76238C11.3921 9.65122 11.4457 9.54798 11.5199 9.46022C11.5954 9.37106 11.6892 9.2992 11.795 9.24954C11.9007 9.19989 12.0159 9.17359 12.1328 9.17244H13.4873ZM12.3191 9.62744H12.1911C12.113 9.62644 12.0375 9.65618 11.9811 9.71028C11.9536 9.73664 11.9318 9.76827 11.9168 9.80329C11.9018 9.8383 11.8941 9.87598 11.894 9.91406C11.894 10.0747 12.0262 10.2057 12.1911 10.2073H12.3191C12.3969 10.2082 12.4719 10.1782 12.5276 10.1239C12.5833 10.0696 12.6151 9.99536 12.6162 9.91756C12.6157 9.879 12.6077 9.84091 12.5925 9.80546C12.5773 9.77001 12.5553 9.7379 12.5277 9.71096C12.5001 9.68402 12.4675 9.66278 12.4317 9.64845C12.3959 9.63412 12.3576 9.62698 12.3191 9.62744ZM10.0374 8.01356H7.84256C7.76528 8.01251 7.6907 8.04197 7.63501 8.09555C7.57931 8.14914 7.54699 8.22252 7.54506 8.29978C7.54506 8.46039 7.67767 8.59144 7.84256 8.593H10.0374C10.076 8.59351 10.1143 8.58641 10.1502 8.57211C10.186 8.5578 10.2187 8.53657 10.2463 8.50962C10.274 8.48268 10.296 8.45055 10.3112 8.41508C10.3264 8.3796 10.3345 8.34148 10.3349 8.30289C10.3344 8.26433 10.3263 8.22625 10.3111 8.19082C10.2959 8.15539 10.2738 8.12331 10.2462 8.09641C10.2186 8.0695 10.1859 8.0483 10.1501 8.03402C10.1143 8.01974 10.076 8.01265 10.0374 8.01317V8.01356Z" fill="#2CFFF3"/>
</svg>
