<svg width="20" height="20" viewBox="0 0 20 20" fill="none" xmlns="http://www.w3.org/2000/svg">
<circle cx="10" cy="10" r="9.5" stroke="#2CFFF3"/>
<path d="M13.9167 9.16667H12.6667V7.5C12.6667 6.11458 11.5521 5 10.1667 5C8.78125 5 7.66667 6.11458 7.66667 7.5V9.16667H6.41667C6.1875 9.16667 6 9.35417 6 9.58333V14.5833C6 14.8125 6.1875 15 6.41667 15H13.9167C14.1458 15 14.3333 14.8125 14.3333 14.5833V9.58333C14.3333 9.35417 14.1458 9.16667 13.9167 9.16667ZM10.1667 12.9167C9.70833 12.9167 9.33333 12.5417 9.33333 12.0833C9.33333 11.625 9.70833 11.25 10.1667 11.25C10.625 11.25 11 11.625 11 12.0833C11 12.5417 10.625 12.9167 10.1667 12.9167ZM11.8333 9.16667H8.5V7.5C8.5 6.58333 9.25 5.83333 10.1667 5.83333C11.0833 5.83333 11.8333 6.58333 11.8333 7.5V9.16667Z" fill="#2CFFF3"/>
</svg>
