<svg width="440" height="364" viewBox="0 0 440 364" fill="none" xmlns="http://www.w3.org/2000/svg">
<rect x="58.2461" y="103.057" width="315.439" height="130.835" fill="#E35A82"/>
<rect x="104.848" y="185.5" width="297.516" height="101.263" fill="#E35A82"/>
<rect x="109.33" y="286.76" width="258.983" height="20.6111" fill="#E35A82"/>
<rect y="166.682" width="151.447" height="43.0144" fill="#FD9DC3"/>
<rect x="163.994" width="56.4564" height="8.96133" fill="#FD9DC3"/>
<rect x="240.162" width="28.6763" height="8.96133" fill="#FD9DC3"/>
<rect x="277.803" width="19.7149" height="8.96133" fill="#FD9DC3"/>
<rect x="268.842" width="8.96133" height="8.96133" fill="#FED8F0"/>
<rect x="220.451" width="19.7149" height="8.96133" fill="#FED8F0"/>
<rect x="125.457" y="8.96484" width="8.96133" height="10.7536" fill="#E35A82"/>
<rect x="134.422" y="8.96484" width="19.7149" height="10.7536" fill="#FD9DC3"/>
<rect x="154.135" y="8.96484" width="9.85747" height="10.7536" fill="#FED8F0"/>
<rect x="163.994" y="8.96484" width="8.96133" height="10.7536" fill="#FD9DC3"/>
<rect x="172.955" y="8.96484" width="56.4564" height="10.7536" fill="#FD9DC3"/>
<rect x="229.414" y="8.96484" width="20.6111" height="10.7536" fill="#E35A82"/>
<rect x="250.023" y="8.96484" width="18.8188" height="10.7536" fill="#FD9DC3"/>
<rect x="268.842" y="8.96484" width="17.9227" height="10.7536" fill="#FED8F0"/>
<rect x="286.76" y="8.96484" width="39.4299" height="10.7536" fill="#FD9DC3"/>
<rect x="335.152" y="19.7188" width="8.96133" height="8.96133" fill="#FD9DC3"/>
<rect x="315.439" y="19.7188" width="19.7149" height="8.96133" fill="#FED8F0"/>
<rect x="297.516" y="19.7188" width="17.9227" height="8.96133" fill="#FD9DC3"/>
<rect x="286.76" y="19.7188" width="10.7536" height="8.96133" fill="#E35A82"/>
<rect x="277.803" y="19.7188" width="8.96133" height="8.96133" fill="#FD9DC3"/>
<rect x="240.162" y="19.7188" width="37.6376" height="8.96133" fill="#FED8F0"/>
<rect x="211.486" y="19.7188" width="28.6763" height="8.96133" fill="#E35A82"/>
<rect x="199.842" y="19.7188" width="11.6497" height="8.96133" fill="#FD9DC3"/>
<rect x="191.773" y="19.7188" width="8.0652" height="8.96133" fill="#FD9DC3"/>
<rect x="172.059" y="19.7188" width="19.7149" height="8.96133" fill="#FD9DC3"/>
<rect x="154.135" y="19.7188" width="17.9227" height="8.96133" fill="#FD9DC3"/>
<rect x="134.422" y="19.7188" width="19.7149" height="8.96133" fill="#FED8F0"/>
<rect x="96.7832" y="19.7188" width="37.6376" height="8.96133" fill="#FD9DC3"/>
<rect x="77.0645" y="28.6738" width="27.7801" height="8.96133" fill="#FD9DC3"/>
<rect x="104.848" y="28.6738" width="9.85747" height="8.96133" fill="#E35A82"/>
<rect x="114.703" y="28.6738" width="19.7149" height="8.96133" fill="#FD9DC3"/>
<rect x="134.422" y="28.6738" width="8.96133" height="8.96133" fill="#FED8F0"/>
<rect x="143.385" y="28.6738" width="19.7149" height="8.96133" fill="#FD9DC3"/>
<rect x="163.094" y="28.6738" width="48.3912" height="8.96133" fill="#FED8F0"/>
<rect x="211.486" y="28.6738" width="17.9227" height="8.96133" fill="#E35A82"/>
<rect x="229.414" y="28.6738" width="38.5337" height="8.96133" fill="#FED8F0"/>
<rect x="267.941" y="28.6738" width="29.5724" height="8.96133" fill="#FD9DC3"/>
<rect x="297.516" y="28.6738" width="56.4564" height="8.96133" fill="#FED8F0"/>
<rect x="277.803" y="37.6367" width="86.0288" height="10.7536" fill="#FED8F0"/>
<rect x="267.941" y="37.6367" width="9.85747" height="10.7536" fill="#FD9DC3"/>
<rect x="220.451" y="37.6367" width="47.4951" height="10.7536" fill="#FED8F0"/>
<rect x="211.486" y="37.6367" width="8.96133" height="10.7536" fill="#FD9DC3"/>
<rect x="154.135" y="37.6367" width="57.3525" height="10.7536" fill="#FED8F0"/>
<rect x="143.385" y="37.6367" width="10.7536" height="10.7536" fill="#FD9DC3"/>
<rect x="125.457" y="37.6367" width="17.9227" height="10.7536" fill="#E35A82"/>
<rect x="114.703" y="37.6367" width="10.7536" height="10.7536" fill="#FD9DC3"/>
<rect x="96.7832" y="37.6367" width="17.9227" height="10.7536" fill="#FED8F0"/>
<rect x="85.1289" y="37.6367" width="11.6497" height="10.7536" fill="#FD9DC3"/>
<rect x="68.1094" y="37.6367" width="17.0265" height="10.7536" fill="#E35A82"/>
<rect x="57.3555" y="37.6367" width="10.7536" height="10.7536" fill="#FD9DC3"/>
<rect x="48.3926" y="48.3926" width="8.96133" height="8.96133" fill="#FD9DC3"/>
<rect x="57.3555" y="48.3926" width="19.7149" height="8.96133" fill="#E35A82"/>
<rect x="77.0645" y="48.3926" width="48.3912" height="8.96133" fill="#FED8F0"/>
<rect x="125.457" y="48.3926" width="8.96133" height="8.96133" fill="#FD9DC3"/>
<rect x="134.422" y="48.3926" width="8.96133" height="8.96133" fill="#E35A82"/>
<rect x="143.385" y="48.3926" width="114.705" height="8.96133" fill="#FED8F0"/>
<rect x="258.088" y="48.3926" width="10.7536" height="8.96133" fill="#FD9DC3"/>
<rect x="268.842" y="48.3926" width="103.055" height="8.96133" fill="#FED8F0"/>
<rect x="371.896" y="57.3555" width="10.7536" height="8.96133" fill="#FD9DC3"/>
<rect x="336.053" y="57.3555" width="35.8453" height="8.96133" fill="#FED8F0"/>
<rect x="325.299" y="57.3555" width="10.7536" height="8.96133" fill="#FD9DC3"/>
<rect x="306.48" y="57.3555" width="18.8188" height="8.96133" fill="#FED8F0"/>
<rect x="296.621" y="57.3555" width="9.85747" height="8.96133" fill="#FD9DC3"/>
<rect x="143.385" y="57.3555" width="153.239" height="8.96133" fill="#FED8F0"/>
<rect x="125.457" y="57.3555" width="17.9227" height="8.96133" fill="#FD9DC3"/>
<rect x="68.1094" y="57.3555" width="57.3525" height="8.96133" fill="#FED8F0"/>
<rect x="57.3555" y="57.3555" width="10.7536" height="8.96133" fill="#E35A82"/>
<rect x="48.3926" y="57.3555" width="8.96133" height="8.96133" fill="#FD9DC3"/>
<rect x="39.4277" y="57.3555" width="8.96133" height="8.96133" fill="#FD9DC3"/>
<rect x="28.6738" y="66.3105" width="10.7536" height="10.7536" fill="#FD9DC3"/>
<rect x="19.7188" y="77.0645" width="8.96133" height="8.96133" fill="#FD9DC3"/>
<rect x="28.6738" y="77.0645" width="10.7536" height="8.96133" fill="#E35A82"/>
<rect x="19.7188" y="86.0293" width="8.96133" height="9.85747" fill="#E35A82"/>
<rect x="10.7539" y="95.8828" width="17.9227" height="8.96133" fill="#E35A82"/>
<rect x="10.7539" y="104.848" width="8.96133" height="18.8188" fill="#E35A82"/>
<rect x="19.7188" y="104.848" width="19.7149" height="18.8188" fill="#FD9DC3"/>
<rect x="28.6738" y="86.0293" width="28.6763" height="18.8188" fill="#FD9DC3"/>
<rect x="39.4277" y="66.3105" width="9.85747" height="11.6497" fill="#FED8F0"/>
<rect x="39.4277" y="77.9648" width="17.9227" height="8.0652" fill="#FD9DC3"/>
<rect x="49.2871" y="66.3105" width="19.7149" height="11.6497" fill="#FD9DC3"/>
<rect x="69.002" y="66.3105" width="16.1304" height="11.6497" fill="#FED8F0"/>
<rect x="57.3555" y="77.9648" width="10.7536" height="26.884" fill="#FED8F0"/>
<rect x="68.1094" y="77.9648" width="8.96133" height="17.0265" fill="#FED8F0"/>
<rect x="77.0645" y="77.9648" width="8.0652" height="8.96133" fill="#FED8F0"/>
<rect x="85.1289" y="66.3105" width="11.6497" height="20.6111" fill="#E35A82"/>
<rect x="96.7832" y="66.3105" width="8.0652" height="20.6111" fill="#FD9DC3"/>
<rect x="104.848" y="66.3105" width="20.6111" height="20.6111" fill="#FED8F0"/>
<rect x="125.457" y="66.3105" width="8.96133" height="20.6111" fill="#FD9DC3"/>
<rect x="134.422" y="66.3105" width="19.7149" height="19.7149" fill="#FED8F0"/>
<rect x="154.135" y="66.3105" width="46.5989" height="9.85747" fill="#FED8F0"/>
<rect x="154.135" y="76.1738" width="9.85747" height="17.9227" fill="#FD9DC3"/>
<rect x="163.994" y="76.1738" width="36.7415" height="9.85747" fill="#FED8F0"/>
<rect x="200.732" y="66.3105" width="10.7536" height="48.3912" fill="#FD9DC3"/>
<rect x="211.486" y="66.3105" width="37.6376" height="19.7149" fill="#FED8F0"/>
<rect x="211.486" y="86.0293" width="28.6763" height="18.8188" fill="#FED8F0"/>
<rect x="211.486" y="104.848" width="17.9227" height="9.85747" fill="#FED8F0"/>
<rect x="249.123" y="66.3105" width="9.85747" height="39.4299" fill="#FD9DC3"/>
<rect x="240.162" y="86.0293" width="8.96133" height="28.6763" fill="#FD9DC3"/>
<rect x="258.98" y="66.3105" width="38.5337" height="19.7149" fill="#FED8F0"/>
<rect x="297.516" y="66.3105" width="37.6376" height="10.7536" fill="#E35A82"/>
<rect x="335.152" y="66.3105" width="9.85747" height="10.7536" fill="#FD9DC3"/>
<rect x="345.01" y="66.3105" width="27.7801" height="10.7536" fill="#FED8F0"/>
<rect x="371.896" y="66.3105" width="19.7149" height="10.7536" fill="#FD9DC3"/>
<rect x="382.65" y="77.0645" width="8.96133" height="8.96133" fill="#FD9DC3"/>
<rect x="391.609" y="77.0645" width="8.96133" height="8.96133" fill="#FED8F0"/>
<rect x="400.572" y="86.0293" width="10.7536" height="9.85747" fill="#FED8F0"/>
<rect x="392.508" y="86.0293" width="8.0652" height="28.6763" fill="#FD9DC3"/>
<rect x="400.572" y="95.8828" width="20.6111" height="18.8188" fill="#FED8F0"/>
<rect x="412.221" y="114.703" width="8.96133" height="8.96133" fill="#FD9DC3"/>
<rect x="392.508" y="114.703" width="19.7149" height="8.96133" fill="#E35A82"/>
<rect x="401.469" y="123.666" width="27.7801" height="19.7149" fill="#FED8F0"/>
<rect x="383.545" y="123.666" width="17.9227" height="19.7149" fill="#E35A82"/>
<rect x="372.789" y="86.0293" width="19.7149" height="37.6376" fill="#FED8F0"/>
<rect x="354.871" y="77.0645" width="27.7801" height="8.96133" fill="#FED8F0"/>
<rect x="363.828" y="86.0293" width="8.96133" height="8.96133" fill="#FED8F0"/>
<rect x="354.871" y="86.0293" width="8.96133" height="28.6763" fill="#FD9DC3"/>
<rect x="363.828" y="94.9941" width="8.96133" height="96.7824" fill="#FED8F0"/>
<rect x="372.789" y="123.666" width="10.7536" height="19.7149" fill="#FD9DC3"/>
<rect x="372.789" y="143.385" width="10.7536" height="8.96133" fill="#FED8F0"/>
<rect x="383.545" y="143.385" width="17.9227" height="48.3912" fill="#FED8F0"/>
<rect x="372.789" y="152.34" width="10.7536" height="39.4299" fill="#FED8F0"/>
<rect x="354.871" y="114.703" width="8.96133" height="20.6111" fill="#E35A82"/>
<rect x="354.871" y="135.314" width="8.96133" height="8.96133" fill="#FED8F0"/>
<rect x="297.516" y="77.0645" width="17.0265" height="8.96133" fill="#FD9DC3"/>
<rect x="314.543" y="77.0645" width="20.6111" height="8.96133" fill="#FED8F0"/>
<rect x="335.152" y="77.0645" width="19.7149" height="8.96133" fill="#FD9DC3"/>
<rect x="297.516" y="86.0293" width="57.3525" height="19.7149" fill="#FED8F0"/>
<rect x="286.76" y="94.9941" width="10.7536" height="28.6763" fill="#FED8F0"/>
<rect x="297.516" y="105.748" width="8.0652" height="17.9227" fill="#FED8F0"/>
<rect x="305.58" y="105.748" width="20.6111" height="8.96133" fill="#FED8F0"/>
<rect x="326.191" y="105.748" width="9.85747" height="8.96133" fill="#E35A82"/>
<rect x="336.053" y="105.748" width="18.8188" height="8.96133" fill="#FED8F0"/>
<rect x="286.76" y="86.0293" width="10.7536" height="8.96133" fill="#FD9DC3"/>
<rect x="258.98" y="86.0293" width="27.7801" height="8.96133" fill="#FED8F0"/>
<rect x="258.98" y="94.9941" width="17.9227" height="19.7149" fill="#FED8F0"/>
<rect x="276.906" y="94.9941" width="9.85747" height="28.6763" fill="#FD9DC3"/>
<rect x="249.123" y="105.748" width="9.85747" height="8.96133" fill="#FED8F0"/>
<rect x="229.414" y="104.848" width="10.7536" height="9.85747" fill="#FD9DC3"/>
<rect x="191.773" y="86.0293" width="8.96133" height="28.6763" fill="#FD9DC3"/>
<rect x="163.994" y="86.0293" width="27.7801" height="19.7149" fill="#FED8F0"/>
<rect x="172.059" y="105.748" width="19.7149" height="8.96133" fill="#FED8F0"/>
<rect x="134.422" y="86.0293" width="19.7149" height="8.0652" fill="#FED8F0"/>
<rect x="96.7832" y="86.9297" width="17.9227" height="27.7801" fill="#FED8F0"/>
<rect x="114.703" y="86.9297" width="19.7149" height="7.16907" fill="#FD9DC3"/>
<rect x="77.0645" y="86.9297" width="19.7149" height="8.0652" fill="#FD9DC3"/>
<rect x="68.1094" y="94.9941" width="28.6763" height="10.7536" fill="#FD9DC3"/>
<rect x="39.4277" y="104.848" width="37.6376" height="9.85747" fill="#FD9DC3"/>
<rect x="10.7539" y="123.666" width="17.9227" height="10.7536" fill="#FD9DC3"/>
<rect x="10.7539" y="134.422" width="8.96133" height="28.6763" fill="#FD9DC3"/>
<rect y="143.385" width="10.7536" height="28.6763" fill="#FD9DC3"/>
<rect x="10.7539" y="163.094" width="8.96133" height="18.8188" fill="#FD9DC3"/>
<rect x="19.7188" y="143.385" width="48.3912" height="28.6763" fill="#FD9DC3"/>
<rect x="48.3926" y="114.703" width="28.6763" height="28.6763" fill="#FD9DC3"/>
<rect x="86.0293" y="105.748" width="10.7536" height="57.3525" fill="#FD9DC3"/>
<rect x="96.7832" y="114.703" width="9.85747" height="9.85747" fill="#FED8F0"/>
<rect x="114.703" y="94.0938" width="10.7536" height="40.326" fill="#FD9DC3"/>
<rect x="125.457" y="94.0938" width="8.0652" height="40.326" fill="#FED8F0"/>
<rect x="133.521" y="94.0938" width="9.85747" height="20.6111" fill="#FED8F0"/>
<rect x="143.385" y="94.0938" width="20.6111" height="20.6111" fill="#FD9DC3"/>
<rect x="163.994" y="105.748" width="8.0652" height="8.96133" fill="#FD9DC3"/>
<rect x="154.135" y="114.703" width="37.6376" height="19.7149" fill="#FD9DC3"/>
<rect x="191.773" y="114.703" width="8.96133" height="8.96133" fill="#E35A82"/>
<rect x="191.773" y="123.666" width="8.96133" height="10.7536" fill="#FD9DC3"/>
<rect x="200.732" y="114.703" width="19.7149" height="19.7149" fill="#FD9DC3"/>
<rect x="219.551" y="114.703" width="57.3525" height="8.96133" fill="#FD9DC3"/>
<rect x="305.58" y="114.703" width="20.6111" height="8.96133" fill="#E35A82"/>
<rect x="326.191" y="114.703" width="9.85747" height="8.96133" fill="#E35A82"/>
<rect x="336.053" y="114.703" width="18.8188" height="8.96133" fill="#E35A82"/>
<rect x="354.871" y="144.275" width="8.96133" height="36.7415" fill="#FED8F0"/>
<rect x="326.191" y="123.666" width="28.6763" height="38.5337" fill="#FED8F0"/>
<rect x="315.439" y="134.422" width="10.7536" height="65.4177" fill="#FED8F0"/>
<rect x="326.191" y="162.203" width="8.96133" height="29.5724" fill="#FED8F0"/>
<rect x="335.152" y="162.203" width="8.0652" height="18.8188" fill="#FED8F0"/>
<rect x="343.217" y="162.203" width="11.6497" height="18.8188" fill="#80152C"/>
<rect x="335.152" y="181.021" width="8.96133" height="10.7536" fill="#80152C"/>
<rect x="354.871" y="181.021" width="8.96133" height="10.7536" fill="#80152C"/>
<rect x="344.117" y="181.021" width="10.7536" height="10.7536" fill="#80152C"/>
<rect x="412.221" y="143.385" width="17.0265" height="21.5072" fill="#FED8F0"/>
<rect x="429.246" y="153.24" width="10.7536" height="28.6763" fill="#FED8F0"/>
<rect x="421.182" y="164.885" width="8.0652" height="26.884" fill="#FED8F0"/>
<rect x="401.469" y="143.385" width="10.7536" height="122.77" fill="#E35A82"/>
<rect x="412.221" y="164.885" width="8.96133" height="101.263" fill="#E35A82"/>
<rect x="421.182" y="191.773" width="8.96133" height="57.3525" fill="#E35A82"/>
<rect x="429.246" y="181.912" width="10.7536" height="26.884" fill="#E35A82"/>
<rect x="106.639" y="114.703" width="8.0652" height="9.85747" fill="#FD9DC3"/>
<rect x="96.7832" y="124.566" width="17.9227" height="47.4951" fill="#FD9DC3"/>
<rect x="114.703" y="134.422" width="28.6763" height="37.6376" fill="#FD9DC3"/>
<rect x="133.521" y="114.703" width="9.85747" height="19.7149" fill="#FD9DC3"/>
<rect x="143.385" y="114.703" width="10.7536" height="57.3525" fill="#E35A82"/>
<rect x="68.1094" y="163.094" width="8.96133" height="8.96133" fill="#FD9DC3"/>
<rect x="163.094" y="134.422" width="57.3525" height="17.9227" fill="#FD9DC3"/>
<rect x="172.059" y="152.34" width="39.4299" height="10.7536" fill="#FD9DC3"/>
<rect x="229.414" y="123.666" width="67.21" height="19.7149" fill="#FD9DC3"/>
<rect x="296.621" y="123.666" width="18.8188" height="10.7536" fill="#E35A82"/>
<rect x="315.439" y="123.666" width="10.7536" height="10.7536" fill="#E35A82"/>
<rect x="296.621" y="134.422" width="18.8188" height="8.96133" fill="#E35A82"/>
<rect x="306.48" y="143.385" width="8.96133" height="8.96133" fill="#E35A82"/>
<rect x="296.621" y="143.385" width="9.85747" height="8.96133" fill="#80152C"/>
<rect x="229.414" y="152.34" width="19.7149" height="10.7536" fill="#80152C"/>
<rect x="220.451" y="163.094" width="8.96133" height="9.85747" fill="#80152C"/>
<rect x="240.162" y="163.094" width="75.2752" height="8.96133" fill="#E35A82"/>
<rect x="306.48" y="152.34" width="8.96133" height="10.7536" fill="#E35A82"/>
<rect x="258.088" y="172.059" width="57.3525" height="19.7149" fill="#E35A82"/>
<rect x="277.803" y="191.773" width="37.6376" height="8.96133" fill="#E35A82"/>
<rect x="249.123" y="181.021" width="8.96133" height="28.6763" fill="#E35A82"/>
<rect x="258.088" y="191.773" width="9.85747" height="8.96133" fill="#E35A82"/>
<rect x="220.451" y="191.773" width="28.6763" height="17.9227" fill="#E35A82"/>
<rect x="200.732" y="200.732" width="19.7149" height="8.96133" fill="#E35A82"/>
<rect x="191.773" y="181.912" width="19.7149" height="9.85747" fill="#E35A82"/>
<rect x="211.486" y="181.912" width="37.6376" height="9.85747" fill="#FED8F0"/>
<rect x="229.414" y="172.059" width="28.6763" height="9.85747" fill="#FED8F0"/>
<rect x="220.451" y="172.955" width="8.96133" height="8.96133" fill="#E35A82"/>
<rect x="181.912" y="172.059" width="18.8188" height="9.85747" fill="#80152C"/>
<rect x="154.135" y="163.094" width="8.96133" height="17.9227" fill="#80152C"/>
<rect x="163.094" y="172.059" width="9.85747" height="20.6111" fill="#80152C"/>
<rect x="172.955" y="181.021" width="9.85747" height="11.6497" fill="#80152C"/>
<rect y="172.059" width="10.7536" height="20.6111" fill="#80152C"/>
<rect x="10.7539" y="181.912" width="8.96133" height="18.8188" fill="#80152C"/>
<rect x="19.7188" y="190.877" width="8.96133" height="9.85747" fill="#80152C"/>
<rect x="0.900391" y="200.732" width="9.85747" height="8.96133" fill="#80152C"/>
<rect x="28.6738" y="220.451" width="28.6763" height="9.85747" fill="#D9D9D9"/>
<rect x="39.4277" y="230.305" width="17.9227" height="8.0652" fill="#D9D9D9"/>
<rect x="57.3555" y="230.305" width="28.6763" height="18.8188" fill="#80152C"/>
<rect x="57.3555" y="200.732" width="48.3912" height="8.96133" fill="#80152C"/>
<rect x="77.0645" y="222.242" width="19.7149" height="8.0652" fill="#80152C"/>
<rect x="68.1094" y="249.123" width="17.9227" height="8.96133" fill="#80152C"/>
<rect x="86.0293" y="181.021" width="19.7149" height="10.7536" fill="#80152C"/>
<rect x="96.7832" y="191.773" width="28.6763" height="8.96133" fill="#80152C"/>
<rect x="114.703" y="181.021" width="28.6763" height="10.7536" fill="#80152C"/>
<rect x="134.422" y="191.773" width="8.96133" height="8.96133" fill="#E35A82"/>
<rect x="143.385" y="191.773" width="19.7149" height="8.96133" fill="#FED8F0"/>
<rect x="163.094" y="191.773" width="8.96133" height="8.96133" fill="#E35A82"/>
<rect x="183.703" y="191.773" width="8.0652" height="8.96133" fill="#E35A82"/>
<rect x="191.773" y="190.877" width="28.6763" height="9.85747" fill="#FED8F0"/>
<rect x="114.703" y="200.732" width="10.7536" height="8.96133" fill="#E35A82"/>
<rect x="125.457" y="200.732" width="46.5989" height="8.96133" fill="#FED8F0"/>
<rect x="172.059" y="200.732" width="19.7149" height="8.96133" fill="#E35A82"/>
<rect x="191.773" y="200.732" width="8.96133" height="8.96133" fill="#FED8F0"/>
<rect x="105.748" y="209.695" width="105.744" height="10.7536" fill="#E35A82"/>
<rect x="96.7832" y="220.451" width="46.5989" height="9.85747" fill="#E35A82"/>
<rect x="104.848" y="230.305" width="29.5724" height="8.0652" fill="#E35A82"/>
<rect x="154.135" y="220.451" width="36.7415" height="9.85747" fill="#E35A82"/>
<rect x="143.385" y="230.305" width="11.6497" height="8.0652" fill="#80152C"/>
<rect x="134.422" y="249.123" width="20.6111" height="8.96133" fill="#FED8F0"/>
<rect x="163.094" y="249.123" width="20.6111" height="8.96133" fill="#FED8F0"/>
<rect x="154.135" y="267.051" width="8.96133" height="10.7536" fill="#80152C"/>
<rect x="191.773" y="267.051" width="8.96133" height="10.7536" fill="#80152C"/>
<rect x="200.732" y="238.369" width="19.7149" height="10.7536" fill="#FD9DC3"/>
<rect x="241.061" y="238.369" width="8.0652" height="10.7536" fill="#FD9DC3"/>
<rect x="286.76" y="238.369" width="19.7149" height="10.7536" fill="#FD9DC3"/>
<rect x="211.486" y="229.414" width="94.9901" height="8.96133" fill="#FD9DC3"/>
<rect x="258.98" y="220.451" width="47.4951" height="8.96133" fill="#FD9DC3"/>
<rect x="268.842" y="209.695" width="17.9227" height="10.7536" fill="#FD9DC3"/>
<rect x="315.439" y="199.842" width="10.7536" height="20.6111" fill="#80152C"/>
<rect x="306.48" y="209.695" width="8.96133" height="10.7536" fill="#80152C"/>
<rect x="335.152" y="200.732" width="28.6763" height="8.96133" fill="#FD9DC3"/>
<rect x="327.09" y="209.695" width="27.7801" height="19.7149" fill="#FD9DC3"/>
<rect x="335.152" y="229.414" width="48.3912" height="8.0652" fill="#FD9DC3"/>
<rect x="354.871" y="220.451" width="18.8188" height="8.96133" fill="#FD9DC3"/>
<rect x="354.871" y="209.695" width="8.96133" height="10.7536" fill="#FED8F0"/>
<rect x="383.545" y="200.732" width="8.96133" height="19.7149" fill="#FD9DC3"/>
<rect x="392.508" y="191.773" width="8.96133" height="37.6376" fill="#FD9DC3"/>
<rect x="277.803" y="295.725" width="37.6376" height="11.6497" fill="#FD9DC3"/>
<rect x="268.842" y="307.371" width="57.3525" height="27.7801" fill="#FD9DC3"/>
<rect x="277.803" y="335.152" width="19.7149" height="8.96133" fill="#FD9DC3"/>
<rect x="258.088" y="324.398" width="10.7536" height="10.7536" fill="#FD9DC3"/>
<rect x="97.6738" y="277.803" width="8.0652" height="17.9227" fill="#80152C"/>
<rect x="105.748" y="286.76" width="8.96133" height="8.96133" fill="#80152C"/>
<rect x="105.748" y="295.725" width="66.3139" height="10.7536" fill="#80152C"/>
<rect x="172.059" y="295.725" width="11.6497" height="19.7149" fill="#80152C"/>
<rect x="183.703" y="295.725" width="17.9227" height="27.7801" fill="#80152C"/>
<rect x="201.631" y="287.66" width="18.8188" height="35.8453" fill="#80152C"/>
<rect x="220.451" y="287.66" width="9.85747" height="47.4951" fill="#80152C"/>
<rect x="230.305" y="278.697" width="18.8188" height="64.5216" fill="#80152C"/>
<rect x="249.123" y="258.088" width="8.96133" height="48.3912" fill="#80152C"/>
<rect x="258.088" y="258.088" width="10.7536" height="37.6376" fill="#80152C"/>
<rect x="268.842" y="258.088" width="8.96133" height="28.6763" fill="#80152C"/>
<rect x="277.803" y="267.051" width="28.6763" height="19.7149" fill="#80152C"/>
<rect x="306.48" y="277.803" width="57.3525" height="17.9227" fill="#80152C"/>
<rect x="344.117" y="267.051" width="10.7536" height="10.7536" fill="#80152C"/>
<rect x="335.152" y="295.725" width="47.4951" height="10.7536" fill="#80152C"/>
<rect x="363.828" y="286.76" width="27.7801" height="8.96133" fill="#80152C"/>
<rect x="363.828" y="306.48" width="8.96133" height="8.96133" fill="#80152C"/>
<rect x="401.469" y="266.15" width="10.7536" height="20.6111" fill="#80152C"/>
<rect x="240.162" y="343.217" width="17.9227" height="8.96133" fill="#80152C"/>
<rect x="269.732" y="352.18" width="8.0652" height="11.6497" fill="#80152C"/>
<rect x="10.7539" y="209.695" width="95.8863" height="10.7536" fill="#E35A82"/>
<rect x="19.7188" y="220.451" width="66.3139" height="17.9227" fill="#E35A82"/>
<rect x="39.4277" y="238.369" width="17.9227" height="10.7536" fill="#E35A82"/>
<rect x="77.0645" y="258.088" width="8.96133" height="8.96133" fill="#E35A82"/>
<rect x="86.0293" y="230.305" width="18.8188" height="47.4951" fill="#E35A82"/>
<rect x="249.123" y="307.371" width="19.7149" height="17.0265" fill="#E35A82"/>
<rect x="249.123" y="324.398" width="8.96133" height="18.8188" fill="#E35A82"/>
<rect x="258.088" y="335.152" width="19.7149" height="17.0265" fill="#E35A82"/>
<rect x="277.803" y="344.117" width="48.3912" height="19.7149" fill="#E35A82"/>
<rect x="297.516" y="335.152" width="28.6763" height="8.96133" fill="#E35A82"/>
<rect x="326.191" y="307.371" width="37.6376" height="36.7415" fill="#E35A82"/>
<rect x="363.828" y="315.439" width="8.96133" height="8.96133" fill="#E35A82"/>
<rect x="326.191" y="344.117" width="17.9227" height="8.96133" fill="#E35A82"/>
<rect x="39.4277" y="114.703" width="8.96133" height="8.96133" fill="#E35A82"/>
<rect x="28.6738" y="123.666" width="19.7149" height="19.7149" fill="#E35A82"/>
<rect x="19.7188" y="134.422" width="8.96133" height="8.96133" fill="#E35A82"/>
</svg>
