<svg width="20" height="20" viewBox="0 0 20 20" fill="none" xmlns="http://www.w3.org/2000/svg">
<circle cx="10" cy="10" r="9.5" stroke="#2CFFF3"/>
<path d="M6.08301 9.16667H10.333V7.5C10.333 6.11458 11.4476 5 12.833 5C14.2184 5 15.333 6.11458 15.333 7.5H14.4997C14.4997 6.58333 13.7497 5.83333 12.833 5.83333C11.9163 5.83333 11.1663 6.58333 11.1663 7.5V9.16667H13.583C13.8122 9.16667 13.9997 9.35417 13.9997 9.58333V14.5833C13.9997 14.8125 13.8122 15 13.583 15H6.08301C5.85384 15 5.66634 14.8125 5.66634 14.5833V9.58333C5.66634 9.35417 5.85384 9.16667 6.08301 9.16667ZM9.83301 12.9167C10.2913 12.9167 10.6663 12.5417 10.6663 12.0833C10.6663 11.625 10.2913 11.25 9.83301 11.25C9.37467 11.25 8.99967 11.625 8.99967 12.0833C8.99967 12.5417 9.37467 12.9167 9.83301 12.9167Z" fill="#2CFFF3"/>
</svg>
